<?xml version="1.0" encoding="utf-8"?>
<!-- Generator: Adobe Illustrator 25.2.1, SVG Export Plug-In . SVG Version: 6.00 Build 0)  -->
<svg width="258" height="57" version="1.1" id="Layer_1" xmlns="http://www.w3.org/2000/svg" xmlns:xlink="http://www.w3.org/1999/xlink" x="0px" y="0px"
	 viewBox="0 0 86 20" style="enable-background:new 0 0 86 20;" xml:space="preserve">
<style type="text/css">
	.st0{fill:#009FE3;}
	.st1{fill:#FFFFFF;}
	.st2{clip-path:url(#SVGID_2_);}
	.st3{fill:#C50AE5;}
	.st4{fill:#FC8300;}
	.st5{fill:#15D12B;}
	.st6{fill:#F90B1C;}
	.st7{fill:#231F20;}
	.st8{fill:#06DCFF;}
	.st9{fill:#FFEC00;}
	.st10{fill:#CC231F;}
	.st11{fill:#FF008C;}
</style>
<g>
	<g>
		<path class="st0" d="M13.2,14.6c-0.9,0.7-1.8,1.1-2.9,1.4c-3.1,0.9-6.6-0.3-8.6-2.8c-2.2-2.9-2.4-6.5-0.4-9.5
			c1.6-2.6,5-4.1,8.1-3.6c2.9,0.5,5,2.1,6.2,4.8c0.5,1.1,0.7,2.2,0.7,3.3c0,2.3,0,4.6,0,7c0,0.5-0.2,0.9-0.7,1.1
			c-0.5,0.2-0.9,0-1.2-0.3C14.1,15.5,13.6,15.1,13.2,14.6z M14.2,12.8C14.2,12.8,14.3,12.8,14.2,12.8c0.1-1.7,0.1-3.3,0.1-4.9
			c-0.1-4.4-4.8-7.2-8.8-5.3c-2.6,1.2-4,4.2-3.3,6.9c0.7,2.9,3.2,4.8,6.2,4.8c1.6-0.1,3-0.7,4.1-1.8c0.4-0.4,1-0.4,1.4,0
			C14,12.6,14.1,12.7,14.2,12.8z"/>
		<g>
			<path class="st0" d="M17.5,15.4V9.1c0-0.5,0.4-0.9,0.9-0.9h0c0.5,0,0.9,0.4,0.9,0.9v6.3c0,0.5-0.4,0.9-0.9,0.9h0
				C17.9,16.4,17.5,15.9,17.5,15.4z"/>
			<path class="st0" d="M20.5,15.4V9.1c0-0.5,0.4-0.9,0.9-0.9h0c0.5,0,0.9,0.4,0.9,0.9v6.3c0,0.5-0.4,0.9-0.9,0.9h0
				C21,16.4,20.5,15.9,20.5,15.4z"/>
			<path class="st0" d="M26.2,12c-0.8,0-1.4,0.6-1.4,1.4s0.6,1.4,1.4,1.4s1.4-0.6,1.4-1.4S27.1,12,26.2,12z"/>
			<path class="st0" d="M29.1,13.5c0,1.6-1.3,2.9-2.9,2.9c-1.6,0-2.9-1.3-2.9-2.9c0-1.6,1.3-2.9,2.9-2.9
				C27.8,10.6,29.1,11.9,29.1,13.5z"/>
		</g>
		<path class="st0" d="M12.1,11.8C12.1,11.8,12.2,11.8,12.1,11.8c0.1-0.1,0.1-0.2,0.1-0.2c0.1-0.2,0.2-0.3,0.2-0.5
			c0.1-0.1,0-0.3-0.1-0.4c-0.4-0.4-0.7-0.7-1.1-1.1c-0.1-0.1-0.3-0.1-0.4,0c0,0-0.1,0.1-0.1,0.1c-0.2,0.2-0.4,0.4-0.6,0.6
			c-0.3,0.2-0.5,0.2-0.7,0c-0.5-0.5-1-1-1.5-1.5C7.5,8.4,7.1,8,6.7,7.6C6.5,7.4,6.5,7.2,6.6,7c0-0.1,0.1-0.1,0.1-0.2
			C7,6.6,7.2,6.4,7.4,6.2c0.1-0.2,0.1-0.3,0-0.4c-0.3-0.4-0.7-0.7-1-1C6.3,4.6,6.2,4.6,6,4.6C5.5,4.8,4.9,5.1,4.8,5.7
			C4.7,6,4.7,6.3,4.7,6.5c0,0.6,0.3,1.2,0.6,1.7c0.6,1,1.4,1.8,2.2,2.6c0.6,0.5,1.2,1,2,1.3c0.8,0.3,1.5,0.4,2.3,0c0,0,0,0,0.1,0
			c0.1-0.1,0.1-0.1,0.2-0.2C12,11.9,12.1,11.9,12.1,11.8z"/>
		<g>
			<path class="st0" d="M17.5,17.2h0.8l0.5,1.7l0.5-1.7h0.8l-0.9,2.4h-0.8L17.5,17.2z"/>
			<path class="st0" d="M21.7,19.2h-0.9l-0.1,0.4H20l0.9-2.4h0.8l0.9,2.4h-0.8L21.7,19.2z M21.6,18.7l-0.3-0.9L21,18.7H21.6z"/>
			<path class="st0" d="M22.9,17.2h0.8V18h0.8v-0.9h0.8v2.4h-0.8v-1h-0.8v1h-0.8V17.2z"/>
		</g>
	</g>
</g>
<path class="st1" d="M25,13.2c-0.1-0.6,0.2-1,0.5-1.1c0.4-0.1,0.8,0,1,0.5c0.3-0.1,0.5-0.1,0.7,0.1c0.2,0.2,0.3,0.5,0.2,0.8
	c0,0,0.1,0,0.1,0c0.2,0.1,0.4,0.3,0.4,0.6c0,0.3-0.2,0.5-0.5,0.5c-0.8,0-1.6,0-2.3,0c-0.3,0-0.6-0.3-0.7-0.7
	C24.4,13.7,24.7,13.3,25,13.2C25,13.3,25,13.2,25,13.2z"/>
<g>
	<g>
		<defs>
			<path id="SVGID_1_" d="M27.3,17c-0.7-0.1-1.4,0.4-1.6,1.1c-0.1,0.7,0.4,1.4,1.1,1.6c0.7,0.1,1.4-0.4,1.6-1.1
				C28.6,17.9,28.1,17.2,27.3,17z M27.9,18.5c-0.1,0.4-0.5,0.7-0.9,0.6c-0.4-0.1-0.7-0.5-0.6-0.9c0.1-0.4,0.5-0.7,0.9-0.6
				C27.7,17.7,27.9,18.1,27.9,18.5z"/>
		</defs>
		<clipPath id="SVGID_2_">
			<use xlink:href="#SVGID_1_"  style="overflow:visible;"/>
		</clipPath>
		<g class="st2">
			<circle class="st3" cx="27.6" cy="18.1" r="0.9"/>
			<circle class="st4" cx="27" cy="17.8" r="0.9"/>
			<circle class="st0" cx="26.6" cy="18" r="0.9"/>
			<circle class="st5" cx="26.5" cy="18.4" r="0.9"/>
			<circle class="st6" cx="26.7" cy="18.8" r="0.9"/>
			<circle class="st7" cx="27.1" cy="18.9" r="0.9"/>
			<circle class="st8" cx="27.4" cy="18.8" r="0.9"/>
			<path class="st9" d="M28.2,17.9C28.2,17.9,28.2,17.9,28.2,17.9c0,0.2-0.1,0.5-0.3,0.6c-0.2,0.2-0.6,0.2-0.8,0.2
				c-0.1,0-0.2,0-0.3,0c0,0,0,0,0,0c0,0.2,0.1,0.4,0.3,0.5c0.4,0.3,0.9,0.3,1.2-0.1C28.6,18.7,28.6,18.2,28.2,17.9z"/>
			<path class="st10" d="M28.1,17.4c0.2,0.4,0.1,0.8-0.2,1.1c-0.3,0.2-0.7,0.3-1,0.1c0.2,0.2,0.4,0.4,0.7,0.4c0.5,0,0.9-0.4,0.9-0.9
				C28.5,17.8,28.3,17.5,28.1,17.4z"/>
			<path class="st11" d="M28,17.3c-0.2-0.2-0.5-0.3-0.8-0.3c0.4,0.1,0.6,0.5,0.6,1c-0.1,0.4-0.4,0.7-0.7,0.7c0.3,0.1,0.6,0,0.8-0.2
				C28.3,18.2,28.3,17.7,28,17.3z"/>
		</g>
	</g>
</g>
</svg>
